<svg version="1" xmlns="http://www.w3.org/2000/svg" width="693.333" height="693.333" viewBox="0 0 520.000000 520.000000"><path d="M238 3.7C175.7 9.9 124.9 33 82.1 74.5 31.9 123.3 4 188.9 4 258.5c0 68.9 27.2 134.6 75.9 183.3 39.4 39.4 89.1 64.4 145.1 72.9 14.3 2.1 53.8 2.5 67.5.5 57.4-8.1 104.7-31 144.7-70 22.8-22.2 37.5-42.5 51.4-70.7 12.6-25.8 20.5-51.5 24.6-80.5 1.7-12.2 1.7-54.5 0-65.5-7.8-49.3-22.4-85.2-49.7-122C420.6 48.7 354.1 11 282.6 4.1c-10.1-1-36.4-1.2-44.6-.4zm74.2 193.8c68.6 112.4 89.8 147.4 89.8 148 0 .3-63.2.5-140.5.5s-140.5-.2-140.5-.5 8.3-14.1 18.4-30.8c17.3-28.5 111.5-183 118.6-194.5 1.8-2.9 3.6-5 4.1-4.5.4.4 23 37.2 50.1 81.8z"/></svg>