<svg version="1" xmlns="http://www.w3.org/2000/svg" width="693.333" height="693.333" viewBox="0 0 520.000000 520.000000"><path d="M236 4c-46.9 4.2-92.3 21.7-130 50.1C54.6 92.8 18.8 151.2 8.1 214c-12.8 74.4 6.6 149.2 53.6 207.5 11 13.6 31.3 33.2 45.8 44 34.3 25.8 73.1 42 116 48.7 16.8 2.5 53.1 3.1 68 1 60.5-8.6 111.1-33.9 151.5-75.8 51.3-53.2 77.4-126.3 71-199.4-7-79.9-48.9-150.5-115.5-194.7C351.7 14.2 292-1 236 4zm89.9 232l63.8 104.5-64.4.3c-35.3.1-93.3.1-128.6 0l-64.4-.3 64-104.8c35.2-57.6 64.4-104.6 64.9-104.5.5.2 29.6 47.3 64.7 104.8z"/></svg>